<?xml version="1.0" encoding="utf-8"?>
<!-- Generator: Adobe Illustrator 19.0.0, SVG Export Plug-In . SVG Version: 6.00 Build 0)  -->
<svg version="1.1" id="Layer_1" xmlns="http://www.w3.org/2000/svg" xmlns:xlink="http://www.w3.org/1999/xlink" x="0px" y="0px"
	 viewBox="0 0 500 500" style="enable-background:new 0 0 500 500;" xml:space="preserve">
<style type="text/css">
	.st0{fill:#922A8E;}
	.st1{fill:#FFFFFF;}
	.st2{fill:none;}
</style>
<polyline id="XMLID_3_" class="st0" points="0,279.6 134.2,0 250,133.3 250,500 "/>
<polyline id="XMLID_17_" class="st1" points="80,188.2 114,247.1 217.8,290.4 "/>
<path id="XMLID_7_" class="st0" d="M367.3,0"/>
<line id="XMLID_6_" class="st2" x1="250" y1="500" x2="250" y2="133.3"/>
<path id="XMLID_4_" class="st0" d="M365.8,0"/>
<line id="XMLID_2_" class="st2" x1="250" y1="500" x2="250" y2="133.3"/>
<path id="XMLID_8_" class="st0" d="M132.7,0"/>
<line id="XMLID_5_" class="st2" x1="250" y1="133.3" x2="250" y2="500"/>
<path id="XMLID_14_" class="st0" d="M132.7,0"/>
<line id="XMLID_13_" class="st2" x1="250" y1="133.3" x2="250" y2="500"/>
<path id="XMLID_12_" class="st0" d="M134.2,0"/>
<line id="XMLID_11_" class="st2" x1="250" y1="133.3" x2="250" y2="500"/>
<path id="XMLID_10_" class="st0" d="M367.3,0"/>
<line id="XMLID_9_" class="st2" x1="250" y1="500" x2="250" y2="133.3"/>
<polyline id="XMLID_22_" class="st0" points="250,500 250,133.3 365.8,0 500,279.6 "/>
<polyline id="XMLID_21_" class="st1" points="282.2,290.4 386,247.1 420,188.2 "/>
<line id="XMLID_20_" class="st2" x1="250" y1="133.3" x2="250" y2="500"/>
<line id="XMLID_19_" class="st2" x1="250" y1="133.3" x2="250" y2="500"/>
<line id="XMLID_18_" class="st2" x1="250" y1="500" x2="250" y2="133.3"/>
<line id="XMLID_16_" class="st2" x1="250" y1="500" x2="250" y2="133.3"/>
<line id="XMLID_15_" class="st2" x1="250" y1="500" x2="250" y2="133.3"/>
<line id="XMLID_1_" class="st2" x1="250" y1="133.3" x2="250" y2="500"/>
</svg>
